<?xml version="1.0" encoding="utf-8"?>
<!-- Generator: Adobe Illustrator 16.0.0, SVG Export Plug-In . SVG Version: 6.00 Build 0)  -->
<!DOCTYPE svg PUBLIC "-//W3C//DTD SVG 1.1//EN" "http://www.w3.org/Graphics/SVG/1.1/DTD/svg11.dtd">
<svg version="1.1" id="Layer_1" xmlns="http://www.w3.org/2000/svg" xmlns:xlink="http://www.w3.org/1999/xlink" x="0px" y="0px"
	 width="150px" height="150px" viewBox="0 0 150 150" enable-background="new 0 0 150 150" xml:space="preserve">
<g>
	<g opacity="0.2">
		<path id="SVGCleanerId_0_4_" fill="#094B88" d="M44.668,99.67c-0.471-0.088-0.928-0.204-1.357-0.347
			c-3.145-1.059-4.922-3.629-5.509-6.938c-0.055-0.313-0.508-0.313-0.563,0c-0.68,3.848-2.943,6.572-6.844,7.296
			c-0.312,0.058-0.312,0.511,0,0.567c3.865,0.71,6.169,3.422,6.847,7.238c0.04,0.24,0.295,0.24,0.28,0.235
			c0.139,0,0.256-0.102,0.28-0.235c0.347-1.97,1.315-4.638,3.969-6.207c0.849-0.5,1.823-0.849,2.897-1.048
			c0.135-0.025,0.234-0.145,0.234-0.281C44.904,99.812,44.805,99.694,44.668,99.67z"/>
	</g>
	<path opacity="0.2" fill="#093D63" enable-background="new    " d="M33.382,98.56c-0.916,0.562-1.932,0.916-2.987,1.113
		c-0.312,0.06-0.312,0.507,0,0.563c3.865,0.714,6.169,3.428,6.847,7.242c0.04,0.242,0.295,0.242,0.28,0.235
		c0.139,0,0.256-0.101,0.28-0.235c0.191-1.09,0.575-2.393,1.329-3.605C38.111,101.025,36.159,99.255,33.382,98.56z"/>
	<path opacity="0.2" fill="#F7E7A1" enable-background="new    " d="M32.108,107.086c-1.113-0.367-1.849-1.197-2.208-2.336
		c-0.064-0.213-0.282-0.209-0.273-0.207c-0.125,0-0.236,0.082-0.274,0.207c-0.346,1.104-1.072,1.95-2.207,2.336
		c-0.256,0.094-0.256,0.457,0,0.543c1.125,0.391,1.858,1.227,2.208,2.344c0.064,0.207,0.281,0.203,0.273,0.2
		c0.125,0,0.235-0.081,0.273-0.202c0.259-0.838,0.715-1.484,1.358-1.923l0,0c0.7-0.479,1.045-0.34,1.045-0.688
		C32.304,107.236,32.225,107.127,32.108,107.086z"/>
	<path opacity="0.2" fill="#EAD786" enable-background="new    " d="M28.287,106.467c-0.007-0.003-0.015-0.007-0.023-0.01
		c-0.33,0.28-0.707,0.488-1.117,0.629c-0.257,0.094-0.257,0.457,0,0.543c1.124,0.391,1.857,1.227,2.207,2.344
		c0.064,0.207,0.281,0.203,0.274,0.2c0.402,0,0.19-0.48,0.859-1.383C30.131,107.669,29.396,106.847,28.287,106.467z"/>
	<path opacity="0.2" fill="#07A8F6" enable-background="new    " d="M28.282,94.042c-1.118-0.371-1.851-1.203-2.208-2.347
		c-0.064-0.204-0.28-0.201-0.274-0.199c-0.124,0-0.235,0.083-0.272,0.199c-0.346,1.11-1.07,1.956-2.207,2.347
		c-0.257,0.088-0.257,0.451,0,0.537c1.129,0.389,1.857,1.232,2.209,2.346c0.063,0.206,0.279,0.204,0.272,0.203
		c0.125,0,0.236-0.084,0.274-0.203c0.429-1.386,1.292-1.858,1.358-1.924c0.698-0.479,1.045-0.343,1.045-0.689
		C28.476,94.191,28.397,94.079,28.282,94.042z"/>
	<path opacity="0.2" fill="#1093C6" enable-background="new    " d="M24.35,93.481c-0.788,0.632-1.223,0.454-1.223,0.828
		c0,0.122,0.079,0.225,0.193,0.27c1.129,0.389,1.857,1.232,2.209,2.346c0.063,0.206,0.279,0.204,0.272,0.203
		c0.384,0,0.2-0.451,0.808-1.312C25.983,93.889,24.492,93.574,24.35,93.481z"/>
</g>
<g>
	<g opacity="0.2">
		<path id="SVGCleanerId_0_3_" fill="#094B88" d="M88.726,29.065c-0.409-0.074-0.815-0.175-1.183-0.302
			c-2.736-0.92-4.282-3.155-4.792-6.033c-0.048-0.274-0.443-0.274-0.49,0c-0.591,3.344-2.559,5.711-5.955,6.34
			c-0.27,0.049-0.27,0.439,0,0.488c3.363,0.622,5.368,2.983,5.957,6.3c0.036,0.212,0.26,0.212,0.246,0.207
			c0.117,0,0.222-0.088,0.242-0.207c0.303-1.711,1.145-4.036,3.455-5.392c0.739-0.433,1.586-0.74,2.517-0.911
			c0.119-0.022,0.206-0.125,0.206-0.244C88.929,29.191,88.842,29.087,88.726,29.065z"/>
	</g>
	<path opacity="0.2" fill="#093D63" enable-background="new    " d="M78.907,28.1c-0.799,0.487-1.682,0.797-2.602,0.97
		c-0.27,0.049-0.27,0.439,0,0.488c3.363,0.622,5.368,2.983,5.957,6.3c0.036,0.212,0.26,0.212,0.246,0.207
		c0.117,0,0.222-0.088,0.242-0.207c0.167-0.947,0.5-2.082,1.156-3.136C83.02,30.247,81.318,28.706,78.907,28.1z"/>
	<path opacity="0.2" fill="#F7E7A1" enable-background="new    " d="M77.795,35.521c-0.968-0.321-1.607-1.042-1.92-2.038
		c-0.054-0.18-0.245-0.178-0.235-0.176c-0.11,0-0.206,0.072-0.24,0.176c-0.301,0.964-0.933,1.701-1.918,2.04
		c-0.224,0.076-0.224,0.393,0,0.47c0.982,0.336,1.616,1.067,1.918,2.04c0.058,0.181,0.247,0.176,0.24,0.174
		c0.107,0,0.205-0.071,0.235-0.174c0.227-0.729,0.625-1.292,1.183-1.672l0,0c0.609-0.418,0.907-0.299,0.907-0.6
		C77.965,35.649,77.896,35.555,77.795,35.521z"/>
	<path opacity="0.2" fill="#EAD786" enable-background="new    " d="M74.471,34.982c-0.004-0.005-0.013-0.008-0.018-0.01
		c-0.287,0.246-0.615,0.424-0.971,0.548c-0.224,0.076-0.224,0.394,0,0.47c0.982,0.336,1.616,1.067,1.918,2.04
		c0.058,0.18,0.247,0.175,0.24,0.174c0.351,0,0.163-0.419,0.748-1.203C76.077,36.027,75.435,35.309,74.471,34.982z"/>
	<path opacity="0.2" fill="#07A8F6" enable-background="new    " d="M74.465,24.17c-0.974-0.321-1.607-1.046-1.919-2.039
		c-0.055-0.179-0.244-0.178-0.237-0.174c-0.109,0-0.207,0.071-0.239,0.174c-0.298,0.961-0.93,1.699-1.921,2.038
		c-0.222,0.077-0.222,0.395,0,0.471c0.985,0.335,1.618,1.07,1.924,2.041c0.055,0.179,0.243,0.176,0.237,0.174
		c0.108,0,0.206-0.071,0.237-0.174c0.373-1.206,1.124-1.618,1.18-1.673c0.611-0.419,0.91-0.299,0.91-0.601
		C74.636,24.299,74.565,24.204,74.465,24.17z"/>
	<path opacity="0.2" fill="#1093C6" enable-background="new    " d="M71.047,23.683c-0.688,0.549-1.065,0.396-1.065,0.721
		c0,0.108,0.069,0.203,0.167,0.235c0.985,0.335,1.618,1.07,1.924,2.041c0.055,0.179,0.243,0.176,0.237,0.174
		c0.332,0,0.172-0.39,0.702-1.139C72.465,24.037,71.169,23.764,71.047,23.683z"/>
</g>
<g>
	<g opacity="0.2">
		<path id="SVGCleanerId_0_2_" fill="#094B88" d="M126.977,116.558c-0.453-0.083-0.887-0.196-1.302-0.334
			c-3.014-1.016-4.721-3.479-5.283-6.653c-0.054-0.301-0.487-0.301-0.538,0c-0.653,3.688-2.823,6.297-6.573,6.998
			c-0.297,0.054-0.297,0.484,0,0.537c3.71,0.688,5.914,3.29,6.573,6.939c0.033,0.232,0.278,0.232,0.27,0.227
			c0.134-0.001,0.248-0.096,0.271-0.227c0.334-1.888,1.26-4.45,3.808-5.945c0.814-0.478,1.747-0.815,2.775-1.004
			c0.131-0.025,0.225-0.139,0.225-0.271C127.202,116.695,127.108,116.582,126.977,116.558z"/>
	</g>
	<path opacity="0.2" fill="#093D63" enable-background="new    " d="M116.153,115.493c-0.877,0.537-1.848,0.88-2.867,1.067
		c-0.297,0.056-0.297,0.485,0,0.538c3.711,0.688,5.917,3.291,6.57,6.946c0.037,0.226,0.283,0.226,0.272,0.222
		c0.136,0,0.247-0.091,0.274-0.222c0.184-1.049,0.551-2.296,1.276-3.458C120.688,117.859,118.814,116.162,116.153,115.493z"/>
	<path opacity="0.2" fill="#F7E7A1" enable-background="new    " d="M114.93,123.67c-1.066-0.352-1.774-1.147-2.116-2.246
		c-0.063-0.197-0.271-0.197-0.262-0.195c-0.12,0-0.229,0.08-0.265,0.193c-0.333,1.063-1.027,1.876-2.115,2.248
		c-0.247,0.086-0.247,0.435,0,0.52c1.08,0.37,1.782,1.177,2.118,2.25c0.06,0.196,0.271,0.191,0.262,0.19
		c0.118,0,0.225-0.077,0.262-0.191c0.249-0.806,0.686-1.425,1.302-1.849l0,0c0.673-0.458,1.003-0.331,1.003-0.658
		C115.118,123.813,115.041,123.71,114.93,123.67z"/>
	<path opacity="0.2" fill="#EAD786" enable-background="new    " d="M111.267,123.077c-0.011-0.002-0.015-0.006-0.024-0.01
		c-0.321,0.273-0.684,0.468-1.07,0.603c-0.247,0.086-0.247,0.435,0,0.52c1.08,0.37,1.782,1.177,2.118,2.25
		c0.06,0.196,0.271,0.191,0.262,0.19c0.39,0,0.18-0.461,0.822-1.326C113.033,124.229,112.33,123.441,111.267,123.077z"/>
	<path opacity="0.2" fill="#07A8F6" enable-background="new    " d="M111.256,111.16c-1.067-0.354-1.779-1.155-2.113-2.248
		c-0.063-0.205-0.273-0.204-0.262-0.195c-0.122,0-0.227,0.079-0.27,0.195c-0.333,1.059-1.026,1.873-2.116,2.245
		c-0.245,0.086-0.245,0.437,0,0.514c1.082,0.377,1.787,1.181,2.116,2.249c0.062,0.204,0.275,0.202,0.27,0.198
		c0.118,0,0.22-0.085,0.262-0.199c0.412-1.325,1.238-1.784,1.302-1.844c0.669-0.461,1-0.333,1-0.662
		C111.444,111.302,111.371,111.197,111.256,111.16z"/>
	<path opacity="0.2" fill="#1093C6" enable-background="new    " d="M107.49,110.625c-0.755,0.604-1.172,0.434-1.172,0.794
		c0,0.116,0.071,0.222,0.182,0.259c1.085,0.37,1.785,1.182,2.12,2.25c0.062,0.196,0.27,0.194,0.261,0.19
		c0.368,0,0.192-0.429,0.773-1.248C109.055,111.013,107.624,110.712,107.49,110.625z"/>
</g>
</svg>
